<svg xmlns="http://www.w3.org/2000/svg" viewBox="0 0 24 24" role="img" aria-label="Java">
  <title>Java</title>
  <g fill="#e76f00">
    
    <path d="M9 2.2c-.6.9-.6 1.7 0 2.5.7.9.7 1.7.1 2.6-.2.3.2.5.4.3.9-.9 1-2 .2-3-.6-.7-.6-1.3-.1-2 .2-.3-.4-.7-.6-.4z"></path>
    <path d="M12.4 1.5c-.7 1-.7 1.9 0 2.8.8 1 .8 1.9.1 2.9-.2.3.2.6.4.3 1-1 1.1-2.2.2-3.3-.6-.7-.6-1.5-.1-2.3.2-.3-.4-.7-.6-.4z"></path>
    <path d="M15.5 2.4c-.5.7-.5 1.3 0 2 .5.7.5 1.3 0 2-.2.3.2.5.4.2.6-.7.7-1.5.1-2.3-.4-.5-.4-.9 0-1.5.2-.3-.3-.7-.5-.4z"></path>
  </g>
  <g fill="#5382a1">
    
    <path d="M3.5 21c2.5.8 6 1 8.5 1s6-.2 8.5-1c.6-.2.6-.9 0-1.1-2.4-.7-5.8-1-8.5-1s-6.1.3-8.5 1c-.6.2-.6.9 0 1.1z"></path>
    
    <path d="M5 9v7.5c0 .5.4.9.9 1 1.9.4 4.3.6 6.1.6s4.2-.2 6.1-.6c.5-.1.9-.5.9-1V9H5zm15 1.2v3.4c0 .5.3.8.8.7 1-.2 1.7-1.1 1.7-2.1V12c0-1-.8-1.9-1.7-2-.5-.1-.8.2-.8.7v-.5z"></path>
  </g>
</svg>