<svg xmlns="http://www.w3.org/2000/svg" viewBox="0 0 100 100" role="img" aria-label="Tableau">
  <title>Tableau</title>
  <path d="M23.39,11.5 h7.22 v5.890000000000001 h5.890000000000001 v7.22 h-5.890000000000001 v5.890000000000001 h-7.22 v-5.890000000000001 h-5.890000000000001 v-7.22 h5.890000000000001 z" fill="#e8a33d"></path>
  <path d="M48.15,7.5 h5.7 v4.65 h4.65 v5.7 h-4.65 v4.65 h-5.7 v-4.65 h-4.65 v-5.7 h4.65 z" fill="#5b879b"></path>
  <path d="M74.39,15.5 h7.22 v5.890000000000001 h5.890000000000001 v7.22 h-5.890000000000001 v5.890000000000001 h-7.22 v-5.890000000000001 h-5.890000000000001 v-7.22 h5.890000000000001 z" fill="#5b879b"></path>
  <path d="M10.77,36.5 h6.46 v5.27 h5.27 v6.46 h-5.27 v5.27 h-6.46 v-5.27 h-5.27 v-6.46 h5.27 z" fill="#7ea4af"></path>
  <path d="M40.87,31.5 h10.26 v8.370000000000001 h8.370000000000001 v10.26 h-8.370000000000001 v8.370000000000001 h-10.26 v-8.370000000000001 h-8.370000000000001 v-10.26 h8.370000000000001 z" fill="#e8762d"></path>
  <path d="M81.77,42.5 h6.46 v5.27 h5.27 v6.46 h-5.27 v5.27 h-6.46 v-5.27 h-5.27 v-6.46 h5.27 z" fill="#8489a9"></path>
  <path d="M21.77,54.5 h6.46 v5.27 h5.27 v6.46 h-5.27 v5.27 h-6.46 v-5.27 h-5.27 v-6.46 h5.27 z" fill="#bf3641"></path>
  <path d="M64.39,60.5 h7.22 v5.890000000000001 h5.890000000000001 v7.22 h-5.890000000000001 v5.890000000000001 h-7.22 v-5.890000000000001 h-5.890000000000001 v-7.22 h5.890000000000001 z" fill="#1f447e"></path>
  <path d="M47.96,76 h6.08 v4.96 h4.96 v6.08 h-4.96 v4.96 h-6.08 v-4.96 h-4.96 v-6.08 h4.96 z" fill="#6f739a"></path>
</svg>